<?xml version="1.0" encoding="utf-8"?>
<!-- Generator: Adobe Illustrator 21.0.2, SVG Export Plug-In . SVG Version: 6.00 Build 0)  -->
<svg version="1.1" id="Layer_1" xmlns="http://www.w3.org/2000/svg" xmlns:xlink="http://www.w3.org/1999/xlink" x="0px" y="0px"
	 viewBox="0 0 144 108" style="enable-background:new 0 0 144 108;" xml:space="preserve">
<style type="text/css">
	.st0{fill-rule:evenodd;clip-rule:evenodd;fill:#3FA9F5;}
	.st1{fill-rule:evenodd;clip-rule:evenodd;fill:#E0C370;}
</style>
<g>
	<g>
		<path class="st0" d="M55.3,98.9c-9.7-1.5-19.4-3-29-4.5c-6-0.9-12.1-1.9-18.1-2.8c-1.1-0.2-2.2-0.4-3.7-0.7
			C9.9,70.4,15.2,50,20.7,29.1c2.1,3,4.6,4.8,3.5,8.8c-1.6,5.7-2.3,11.7-3.5,17.5c-1.9,8.8-3.9,17.5-5.9,26.3
			c-0.4,1.8,0.1,2.4,1.7,2.9c13.2,4,26.4,8.1,39.6,12.1c0.7,0.2,1.5,0.5,2.2,0.8C58.2,99.5,56.3,99.1,55.3,98.9z"/>
		<path class="st0" d="M84.7,97.6c4.3-1.3,8.4-2.6,12.5-3.9c9.8-3,19.6-6.1,29.4-9c1.9-0.6,2.3-1.4,1.8-3.3
			c-1.6-6.3-3.1-12.7-4.4-19.1c-1.8-8.8-3.6-17.6-5.2-26.4c-0.1-0.7,0.1-1.7,0.5-2.4c0.8-1.4,1.9-2.7,3.2-4.6
			c5.5,20.9,10.8,41.3,16.2,61.9c-2.9,0.5-5.5,0.9-8.1,1.3c-14.2,2.2-28.4,4.4-42.6,6.6C86.8,99.1,85.4,99.6,84.7,97.6z"/>
		<path class="st0" d="M111.7,26.7c1.6,8.6,3.2,17.1,4.8,25.7c1.6,8.3,3.1,16.7,4.7,25c0.4,1.8,0,2.7-1.8,3.4
			c-12,4.5-23.8,9.2-35.8,13.8c-0.8,0.3,0,0-2.5,0.9c-0.1-0.3-0.3-1.2-0.3-1.5c0.7-0.4,1.3-0.7,2-1.1c9.7-4.8,19.4-9.6,29.2-14.3
			c1.6-0.8,2-1.7,1.7-3.4c-1.9-13.8-3.6-27.6-5.6-41.4c-0.5-3.3,2.1-4.8,2.9-7.3C111.2,26.6,111.4,26.6,111.7,26.7z"/>
		<path class="st0" d="M31.7,26.4c2.7,3,3.8,6,3.1,9.9c-2,13.1-3.6,26.3-5.4,39.5c-0.2,1.5,0.3,2.2,1.6,2.8
			c9.5,4.6,19.1,9.3,28.6,14c0.9,0.4,1.8,0.9,2.7,1.4c0,0.3-0.4,1.3-0.4,1.6c-2-0.8-1.3-0.5-2-0.8C47.6,90,35.5,85.2,23.2,80.5
			c-1.8-0.7-1.5-1.7-1.3-3c1.4-7.5,2.9-14.9,4.3-22.4c1.7-9,3.4-18,5-27C31.3,27.6,31.5,27.1,31.7,26.4z"/>
		<path class="st0" d="M41.6,22.6c2.7,3.2,3.8,6.3,3.3,10.3c-1.1,8.8-1.7,17.6-2.4,26.5c-0.3,3.5-0.5,6.9-0.9,10.4
			c-0.3,2.1,0.4,3.4,2.2,4.7c7.6,5.2,15.1,10.6,22.7,15.9c0.5,0.4,1,0.8,1.4,1.7c-0.7-0.1-1.4-0.1-2-0.4
			C55.9,86.2,46,80.8,36.1,75.4c-1.5-0.8-1.3-1.9-1.1-3.1c1.5-11.5,3-23,4.5-34.5C40.2,32.9,40.9,27.9,41.6,22.6z"/>
		<path class="st0" d="M75.4,91.6c0.5-0.4,1-1,1.5-1.4c5.6-3.9,11.1-7.8,16.7-11.7c2.3-1.6,4.5-3.2,6.8-4.7c1.1-0.7,1.5-1.6,1.4-2.9
			c-0.6-5.6-1.2-11.2-1.7-16.8c-0.7-8.2-1.5-16.3-1.8-24.5c-0.1-2.2,1.6-4.4,2.5-6.6c0.3,0.1,0.6,0.1,0.8,0.2
			c0.6,4.2,1.2,8.4,1.7,12.6c1.6,12,3.1,24,4.8,36c0.3,2.2-0.3,3.3-2.2,4.4c-9.4,5-18.7,10.2-28.1,15.3
			C77.1,91.7,75.5,91.9,75.4,91.6z"/>
		<path class="st1" d="M95.6,19.5c-1.5,2.5-2.1,5.1-4.9,6.2c-7.8,3.1-11,9.5-11.7,17.4c-0.3,3.3,0,6.6-0.1,9.9
			c-0.1,9.3-0.3,18.5-0.5,27.8c-0.1,2.6-2.6,2.9-4.5,4.5c-0.1-1.3-0.2-2.1-0.2-2.9c0-8.4,0-16.8,0.1-25.2c0.1-6.6-0.2-13.1,1.5-19.6
			c2.5-9.5,8.8-15,18-17.7C93.9,19.7,94.5,19.7,95.6,19.5z"/>
		<path class="st1" d="M47.7,19.5c1.5,2.5,2.1,5.1,4.9,6.2c7.8,3.1,11,9.5,11.7,17.4c0.3,3.3,0,6.6,0.1,9.9
			c0.1,9.3,0.3,18.5,0.5,27.8c0.1,2.6,2.6,2.9,4.5,4.5c0.1-1.3,0.2-2.1,0.2-2.9c0-8.4,0-16.8-0.1-25.2c-0.1-6.6,0.2-13.1-1.5-19.6
			c-2.5-9.5-8.8-15-18-17.7C49.4,19.7,48.8,19.7,47.7,19.5z"/>
		<path class="st1" d="M71.6,21.9c-3.3,0-6.1-2.7-6.1-5.8c0-3.3,2.8-6.1,6.1-6c3.3,0,5.9,2.6,5.9,5.9C77.6,19.3,75,21.9,71.6,21.9z"
			/>
		<path class="st0" d="M79.6,99.7c-5-3.9-10.3-4.3-15.5-0.4c-0.8,0.9-1.3,0.5-2.2,0.4c1.7-3,4.4-4.3,7.6-4.8c4.7-0.6,8.9,0.6,12,4.3
			C81.3,100.3,80.2,100.2,79.6,99.7z"/>
	</g>
</g>
</svg>
